<svg xmlns="http://www.w3.org/2000/svg" height="1024" preserveAspectRatio="none" style="display: block;" version="1.1" viewBox="375.5 335.1 1345.0 1345.0" width="1024">

<path d="M 1187.75 1173.27 C 1200.54 1159.22 1219.6 1142.84 1233.63 1129.3 C 1246.36 1117.01 1263.85 1098.68 1277.25 1088.42 C 1298.96 1071.49 1326.68 1064.21 1353.92 1068.3 C 1362.06 1069.49 1370.05 1071.53 1377.77 1074.37 C 1398.89 1082.07 1423.62 1094.31 1444.17 1103.98 C 1488.61 1124.89 1550.27 1143.64 1580.11 1184.19 C 1597.68 1208.32 1604.87 1238.48 1600.09 1267.95 C 1594.06 1306.63 1567.41 1330 1541.16 1356.54 C 1521.82 1376.08 1501.64 1394.84 1481.96 1414.05 L 1433.06 1461.58 C 1414.93 1479.49 1396.44 1498.8 1375.85 1513.71 C 1306.7 1564.02 1221.02 1587.31 1136.02 1573.1 C 1080.31 1564.07 1023.14 1541.29 980.994 1503.08 C 961.139 1485.08 941.696 1465.06 922.637 1446.04 L 802.378 1325.99 L 645.261 1170.23 C 613.238 1138.38 577.445 1106.21 550.803 1070.09 C 505.181 1008.25 491.101 926.196 504.047 850.941 C 510.588 812.067 525.51 775.082 547.777 742.553 C 571.084 708.315 614.011 667.225 643.946 638.359 C 673.182 610.42 702.222 582.276 731.062 553.928 L 791.742 495.002 C 829.318 458.612 858.319 427.868 916.307 438.287 C 943.838 443.061 968.277 458.749 984.08 481.794 C 1002.09 508.42 1006.75 553.242 1013.87 584.914 C 1018.79 605.935 1023.58 626.987 1028.24 648.068 C 1031.07 660.807 1034.73 675.722 1036.07 688.554 C 1037.17 698.72 1036.64 708.996 1034.51 718.996 C 1023.4 773.371 968.364 804.495 933.268 843.114 C 930.018 846.69 921.766 854.941 917.927 857.272 C 907.627 862.413 893.193 876.683 885.153 885.582 C 848.205 926.476 838.708 995.906 878.914 1038.1 C 887.628 1047.24 897.109 1055.71 906.18 1064.64 C 926.028 1084.45 946.021 1104.12 966.158 1123.64 L 1005.11 1161.47 C 1012.83 1169.01 1023.42 1179.89 1031.59 1186.28 C 1040.97 1193.57 1051.57 1199.12 1062.91 1202.67 C 1096.25 1212.84 1133.05 1205.77 1163.29 1189.59 C 1171.96 1184.95 1180.15 1179.49 1187.75 1173.27 z" fill="rgb(234,88,12)" transform="translate(0,0)"></path>
<path d="M 1378.61 1292.6 C 1370.79 1300.95 1363.25 1308.44 1354.96 1316.32 C 1268.98 1398.07 1135.11 1413.01 1031.93 1356 C 995.14 1335.68 971.542 1310.74 942.161 1281.68 L 876.847 1216.89 C 834.829 1175.63 791.484 1135.26 751.264 1092.04 C 700.366 1037.33 680.319 969.507 683.275 895.58 C 685.324 844.335 704.301 790.41 734.724 748.909 C 748.966 729.482 787.343 692.512 805.798 675.896 C 810.018 734.13 829.214 764.198 867.798 807.01 C 885.107 826.215 898.36 840.225 917.927 857.272 C 907.627 862.413 893.193 876.683 885.153 885.582 C 848.205 926.476 838.708 995.906 878.914 1038.1 C 887.628 1047.24 897.109 1055.71 906.18 1064.64 C 926.028 1084.45 946.021 1104.12 966.158 1123.64 L 1005.11 1161.47 C 1012.83 1169.01 1023.42 1179.89 1031.59 1186.28 C 1040.97 1193.57 1051.57 1199.12 1062.91 1202.67 C 1096.25 1212.84 1133.05 1205.77 1163.29 1189.59 C 1171.96 1184.95 1180.15 1179.49 1187.75 1173.27 C 1193.24 1177.8 1202.43 1187.52 1207.88 1192.93 L 1247.24 1231.97 C 1274.99 1259.45 1295.05 1280.79 1335.4 1289.05 C 1352.05 1292.46 1362.59 1291.18 1378.61 1292.6 z" fill="rgb(255,255,255)" transform="translate(0,0)"></path>
<metadata><recraft-signature>{"signed_by": "recraft", "signature_b64": "qno9WOmDc4HS4cqAXYKm3G1x53f1B1J6qoaiwe8q/6TqZWyc0iVnSC53KtS48Se/k04reN75v1eneA/RGqadCw==", "signing_algo": "Ed25519", "generation_timestamp": 1781622297, "identifier": "0a1ae9c7-5371-4366-97c4-c88d646bdbea"}</recraft-signature></metadata></svg>